<svg xmlns="http://www.w3.org/2000/svg" xmlns:xlink="http://www.w3.org/1999/xlink" width="1080" zoomAndPan="magnify" viewBox="0 0 810 809.999993" height="1080" preserveAspectRatio="xMidYMid meet" version="1.0"><defs><g/></defs><path fill="#ceffe9" d="M 418.125 101.25 C 423.203125 101.25 428.277344 101.378906 433.347656 101.632812 C 438.417969 101.886719 443.476562 102.265625 448.527344 102.777344 C 453.582031 103.285156 458.617188 103.917969 463.636719 104.679688 C 468.65625 105.441406 473.652344 106.324219 478.628906 107.335938 C 483.601562 108.347656 488.550781 109.484375 493.46875 110.742188 C 498.386719 112 503.269531 113.382812 508.117188 114.886719 C 512.96875 116.390625 517.777344 118.015625 522.542969 119.761719 C 527.3125 121.507812 532.03125 123.371094 536.707031 125.351562 C 541.378906 127.335938 546 129.433594 550.570312 131.644531 C 555.140625 133.859375 559.648438 136.1875 564.101562 138.625 C 568.554688 141.066406 572.941406 143.617188 577.265625 146.277344 C 581.589844 148.9375 585.84375 151.703125 590.03125 154.574219 C 594.214844 157.449219 598.328125 160.425781 602.363281 163.503906 C 606.402344 166.585938 610.355469 169.761719 614.234375 173.039062 C 618.109375 176.320312 621.902344 179.691406 625.613281 183.160156 C 629.320312 186.628906 632.9375 190.1875 636.46875 193.835938 C 639.996094 197.484375 643.433594 201.21875 646.773438 205.042969 C 650.117188 208.863281 653.359375 212.765625 656.507812 216.75 C 659.652344 220.734375 662.699219 224.796875 665.640625 228.933594 C 668.585938 233.070312 671.421875 237.277344 674.152344 241.558594 C 676.886719 245.835938 679.507812 250.183594 682.023438 254.59375 C 684.535156 259.003906 686.9375 263.472656 689.226562 268.003906 C 691.515625 272.535156 693.691406 277.121094 695.75 281.761719 C 697.8125 286.402344 699.753906 291.09375 701.578125 295.828125 C 703.402344 300.566406 705.109375 305.347656 706.691406 310.171875 C 708.277344 314.996094 709.742188 319.855469 711.082031 324.75 C 712.421875 329.648438 713.640625 334.574219 714.734375 339.53125 C 715.828125 344.488281 716.800781 349.472656 717.644531 354.476562 C 718.488281 359.484375 719.207031 364.507812 719.796875 369.550781 C 720.390625 374.59375 720.855469 379.644531 721.195312 384.710938 C 721.535156 389.777344 721.746094 394.847656 721.832031 399.925781 C 721.917969 405 721.875 410.074219 721.703125 415.148438 C 721.535156 420.222656 721.238281 425.289062 720.816406 430.351562 C 720.390625 435.410156 719.839844 440.453125 719.164062 445.484375 C 718.488281 450.515625 717.683594 455.527344 716.757812 460.519531 C 715.828125 465.511719 714.777344 470.476562 713.601562 475.414062 C 712.421875 480.355469 711.125 485.261719 709.699219 490.132812 C 708.277344 495.007812 706.734375 499.839844 705.066406 504.636719 C 703.402344 509.433594 701.617188 514.183594 699.714844 518.890625 C 697.8125 523.597656 695.789062 528.253906 693.652344 532.859375 C 691.515625 537.464844 689.265625 542.011719 686.898438 546.503906 C 684.535156 550.996094 682.058594 555.425781 679.472656 559.796875 C 676.882812 564.164062 674.1875 568.464844 671.386719 572.699219 C 668.582031 576.929688 665.675781 581.089844 662.664062 585.179688 C 659.652344 589.265625 656.542969 593.273438 653.328125 597.207031 C 650.117188 601.136719 646.808594 604.984375 643.402344 608.75 C 639.996094 612.515625 636.5 616.195312 632.910156 619.785156 C 629.320312 623.375 625.640625 626.871094 621.875 630.277344 C 618.109375 633.683594 614.261719 636.992188 610.332031 640.203125 C 606.398438 643.417969 602.390625 646.527344 598.304688 649.539062 C 594.214844 652.550781 590.054688 655.457031 585.824219 658.261719 C 581.589844 661.0625 577.289062 663.757812 572.921875 666.347656 C 568.550781 668.933594 564.121094 671.410156 559.628906 673.777344 C 555.136719 676.140625 550.589844 678.390625 545.984375 680.527344 C 541.378906 682.664062 536.722656 684.6875 532.015625 686.589844 C 527.308594 688.492188 522.558594 690.277344 517.761719 691.941406 C 512.964844 693.609375 508.132812 695.152344 503.257812 696.574219 C 498.386719 698 493.480469 699.296875 488.539062 700.476562 C 483.601562 701.652344 478.636719 702.703125 473.644531 703.632812 C 468.652344 704.5625 463.640625 705.363281 458.609375 706.039062 C 453.578125 706.714844 448.535156 707.265625 443.476562 707.691406 C 438.414062 708.113281 433.347656 708.410156 428.273438 708.582031 C 423.199219 708.75 418.125 708.792969 413.050781 708.707031 C 407.972656 708.621094 402.902344 708.410156 397.835938 708.070312 L 418.125 405 Z M 418.125 101.25 " fill-opacity="1" fill-rule="nonzero"/><path fill="#3a1455" d="M 397.835938 708.070312 C 392.984375 707.746094 388.140625 707.304688 383.304688 706.746094 C 378.472656 706.191406 373.65625 705.515625 368.855469 704.726562 C 364.054688 703.9375 359.273438 703.035156 354.519531 702.015625 C 349.761719 700.996094 345.03125 699.863281 340.328125 698.617188 C 335.625 697.371094 330.953125 696.015625 326.316406 694.542969 C 321.679688 693.074219 317.078125 691.492188 312.519531 689.800781 C 307.957031 688.109375 303.4375 686.308594 298.964844 684.402344 C 294.488281 682.492188 290.0625 680.476562 285.683594 678.355469 C 281.304688 676.234375 276.980469 674.007812 272.707031 671.679688 C 268.4375 669.351562 264.222656 666.921875 260.070312 664.390625 C 255.914062 661.859375 251.824219 659.226562 247.796875 656.5 C 243.765625 653.769531 239.804688 650.949219 235.914062 648.03125 C 232.019531 645.109375 228.203125 642.101562 224.453125 639 C 220.707031 635.898438 217.035156 632.707031 213.4375 629.429688 C 209.84375 626.148438 206.332031 622.785156 202.898438 619.339844 C 199.464844 615.890625 196.117188 612.363281 192.851562 608.757812 C 189.589844 605.148438 186.414062 601.464844 183.328125 597.703125 C 180.242188 593.941406 177.246094 590.109375 174.34375 586.207031 C 171.441406 582.300781 168.636719 578.328125 165.921875 574.289062 C 163.210938 570.25 160.597656 566.148438 158.085938 561.984375 C 155.570312 557.816406 153.15625 553.59375 150.847656 549.3125 C 148.535156 545.03125 146.328125 540.699219 144.222656 536.3125 C 142.121094 531.925781 140.125 527.488281 138.234375 523.007812 C 136.34375 518.523438 134.5625 513.996094 132.890625 509.429688 C 131.21875 504.859375 129.65625 500.253906 128.203125 495.609375 C 126.753906 490.96875 125.414062 486.292969 124.1875 481.582031 C 122.960938 476.875 121.847656 472.140625 120.847656 467.378906 C 119.851562 462.617188 118.964844 457.835938 118.195312 453.03125 C 117.425781 448.226562 116.773438 443.40625 116.234375 438.574219 C 115.699219 433.738281 115.277344 428.890625 114.972656 424.035156 C 114.667969 419.179688 114.480469 414.320312 114.40625 409.457031 C 114.335938 404.589844 114.382812 399.726562 114.542969 394.867188 C 114.707031 390.003906 114.984375 385.148438 115.378906 380.296875 C 115.777344 375.449219 116.289062 370.613281 116.917969 365.789062 C 117.542969 360.964844 118.289062 356.15625 119.148438 351.367188 C 120.003906 346.578125 120.980469 341.8125 122.066406 337.074219 C 123.15625 332.332031 124.355469 327.617188 125.671875 322.933594 C 126.984375 318.25 128.410156 313.597656 129.949219 308.984375 C 131.488281 304.367188 133.136719 299.792969 134.894531 295.253906 C 136.652344 290.71875 138.515625 286.226562 140.488281 281.78125 C 142.464844 277.332031 144.542969 272.9375 146.726562 268.589844 C 148.914062 264.242188 151.199219 259.949219 153.589844 255.714844 C 155.984375 251.476562 158.472656 247.300781 161.066406 243.183594 C 163.65625 239.066406 166.347656 235.011719 169.132812 231.023438 C 171.921875 227.035156 174.800781 223.117188 177.777344 219.269531 C 180.75 215.417969 183.816406 211.640625 186.972656 207.941406 C 190.128906 204.238281 193.371094 200.613281 196.703125 197.066406 C 200.03125 193.519531 203.445312 190.054688 206.945312 186.671875 C 210.441406 183.289062 214.015625 179.992188 217.671875 176.785156 C 221.328125 173.574219 225.058594 170.453125 228.863281 167.421875 C 232.667969 164.390625 236.542969 161.449219 240.492188 158.605469 C 244.4375 155.761719 248.449219 153.011719 252.527344 150.359375 C 256.605469 147.707031 260.746094 145.152344 264.949219 142.699219 C 269.148438 140.246094 273.40625 137.894531 277.722656 135.648438 C 282.035156 133.398438 286.402344 131.253906 290.816406 129.214844 C 295.234375 127.175781 299.699219 125.246094 304.207031 123.421875 C 308.71875 121.59375 313.269531 119.878906 317.863281 118.273438 C 322.453125 116.667969 327.082031 115.171875 331.746094 113.789062 C 336.410156 112.40625 341.105469 111.136719 345.832031 109.976562 C 350.558594 108.820312 355.308594 107.777344 360.082031 106.847656 C 364.859375 105.917969 369.652344 105.101562 374.46875 104.402344 C 379.28125 103.703125 384.113281 103.121094 388.953125 102.652344 C 393.796875 102.1875 398.648438 101.835938 403.507812 101.601562 C 408.367188 101.367188 413.230469 101.25 418.09375 101.25 L 418.125 405 Z M 397.835938 708.070312 " fill-opacity="1" fill-rule="nonzero"/><g fill="#000000" fill-opacity="1"><g transform="translate(731.285127, 410.425781)"><g><path d="M 1.007812 -8.28125 C 1.007812 -7.222656 1.007812 -6.144531 0.984375 -5.089844 L 0.984375 -3.625 C 0.984375 -2.519531 0.984375 -1.390625 1.007812 -0.265625 C 1.007812 0.0234375 1.007812 0.046875 1.320312 0.0976562 L 1.464844 0.0976562 C 1.726562 0.0976562 1.992188 0.0703125 2.230469 0.0976562 C 2.785156 0.144531 3.335938 0.144531 3.886719 0.144531 C 3.984375 0.144531 4.054688 0.121094 4.128906 0.121094 C 4.34375 0.0703125 4.441406 -0.046875 4.464844 -0.265625 C 4.464844 -0.769531 4.488281 -1.296875 4.488281 -1.800781 C 4.464844 -2.953125 4.441406 -4.105469 4.441406 -5.257812 C 4.441406 -5.929688 4.464844 -6.601562 4.488281 -7.273438 C 4.488281 -7.367188 4.511719 -7.414062 4.609375 -7.414062 C 4.824219 -7.414062 5.039062 -7.441406 5.257812 -7.441406 C 5.953125 -7.464844 6.625 -7.464844 7.296875 -7.414062 C 7.753906 -7.390625 8.230469 -7.414062 8.6875 -7.441406 C 8.832031 -7.464844 8.878906 -7.511719 8.878906 -7.679688 C 8.878906 -7.871094 8.902344 -8.0625 8.902344 -8.257812 C 8.902344 -8.785156 8.902344 -9.289062 8.878906 -9.792969 C 8.878906 -9.910156 8.832031 -10.03125 8.785156 -10.128906 C 8.6875 -10.320312 8.519531 -10.367188 8.328125 -10.390625 C 7.65625 -10.390625 6.984375 -10.414062 6.335938 -10.414062 L 6.191406 -10.414062 C 5.734375 -10.390625 5.257812 -10.367188 4.777344 -10.34375 C 4.65625 -10.34375 4.632812 -10.367188 4.632812 -10.511719 C 4.632812 -10.703125 4.65625 -10.894531 4.632812 -11.089844 C 4.632812 -11.855469 4.609375 -12.601562 4.609375 -13.367188 C 4.609375 -13.535156 4.609375 -13.535156 4.777344 -13.558594 L 5.785156 -13.632812 C 6.167969 -13.632812 6.574219 -13.679688 6.960938 -13.679688 C 7.464844 -13.703125 7.945312 -13.703125 8.449219 -13.703125 C 8.6875 -13.703125 8.953125 -13.703125 9.191406 -13.726562 C 9.574219 -13.777344 9.742188 -13.871094 9.792969 -14.28125 C 9.886719 -15 9.886719 -15.71875 9.863281 -16.441406 C 9.863281 -16.511719 9.863281 -16.558594 9.839844 -16.609375 C 9.769531 -16.847656 9.671875 -17.039062 9.382812 -17.0625 C 9.121094 -17.113281 8.855469 -17.160156 8.59375 -17.160156 C 8.207031 -17.183594 7.824219 -17.160156 7.441406 -17.160156 L 3.71875 -17.160156 C 3.023438 -17.136719 2.304688 -17.0625 1.609375 -16.96875 C 1.414062 -16.945312 1.246094 -16.871094 1.128906 -16.726562 C 1.054688 -16.679688 1.007812 -16.558594 1.007812 -16.488281 C 0.984375 -16.246094 0.960938 -16.007812 0.984375 -15.769531 C 0.984375 -14.28125 1.007812 -12.769531 1.007812 -11.257812 Z M 1.007812 -8.28125 "/></g></g></g><g fill="#000000" fill-opacity="1"><g transform="translate(741.653153, 410.425781)"><g><path d="M 1.246094 -2.832031 L 1.296875 -2.832031 L 1.296875 0.144531 C 1.296875 0.3125 1.367188 0.382812 1.558594 0.359375 C 1.894531 0.359375 2.257812 0.335938 2.59375 0.335938 C 3.238281 0.359375 3.886719 0.289062 4.511719 0.214844 C 4.632812 0.214844 4.679688 0.144531 4.703125 0.046875 L 4.703125 -0.214844 C 4.703125 -1.609375 4.703125 -3.023438 4.679688 -4.414062 C 4.679688 -4.609375 4.679688 -4.609375 4.871094 -4.632812 C 5.207031 -4.65625 5.519531 -4.679688 5.855469 -4.703125 C 5.976562 -4.726562 6.023438 -4.703125 6.046875 -4.585938 C 6.121094 -4.414062 6.191406 -4.246094 6.265625 -4.054688 C 6.40625 -3.742188 6.527344 -3.433594 6.695312 -3.121094 C 6.886719 -2.761719 7.105469 -2.425781 7.296875 -2.089844 C 7.441406 -1.847656 7.609375 -1.632812 7.703125 -1.390625 C 7.894531 -0.910156 8.113281 -0.457031 8.375 -0.0234375 C 8.449219 0.0976562 8.542969 0.144531 8.664062 0.167969 C 8.976562 0.167969 9.3125 0.191406 9.648438 0.167969 C 10.128906 0.144531 10.585938 0.0703125 11.0625 0.046875 C 11.351562 0.0234375 11.617188 0.0234375 11.855469 -0.0976562 C 12.023438 -0.167969 12.097656 -0.214844 12.070312 -0.40625 C 12.046875 -0.625 12 -0.839844 11.929688 -1.054688 C 11.761719 -1.464844 11.59375 -1.847656 11.375 -2.257812 C 11.160156 -2.640625 10.96875 -3.070312 10.824219 -3.503906 C 10.824219 -3.550781 10.800781 -3.601562 10.777344 -3.648438 C 10.609375 -4.03125 10.441406 -4.414062 10.273438 -4.777344 C 10.175781 -4.992188 10.078125 -5.183594 9.984375 -5.375 C 9.863281 -5.566406 9.742188 -5.761719 9.601562 -5.976562 C 9.574219 -6.046875 9.574219 -6.097656 9.648438 -6.144531 C 9.816406 -6.265625 9.984375 -6.382812 10.128906 -6.503906 C 10.222656 -6.601562 10.320312 -6.671875 10.390625 -6.792969 C 10.632812 -7.152344 10.871094 -7.535156 10.992188 -7.945312 C 11.207031 -8.617188 11.398438 -9.3125 11.425781 -10.03125 C 11.449219 -10.441406 11.449219 -10.871094 11.449219 -11.304688 C 11.449219 -12.433594 11.207031 -13.511719 10.800781 -14.566406 C 10.703125 -14.761719 10.65625 -14.976562 10.535156 -15.144531 C 10.03125 -15.910156 9.40625 -16.535156 8.519531 -16.824219 C 8.28125 -16.894531 8.039062 -16.945312 7.800781 -16.945312 C 7.128906 -16.945312 6.433594 -16.921875 5.734375 -16.921875 C 5.113281 -16.921875 4.464844 -16.945312 3.816406 -16.945312 C 3.648438 -16.945312 3.503906 -16.96875 3.359375 -16.96875 C 3.121094 -16.945312 2.902344 -16.921875 2.664062 -16.921875 C 2.496094 -16.921875 2.328125 -16.945312 2.160156 -16.945312 C 2.015625 -16.96875 1.871094 -16.992188 1.703125 -17.015625 C 1.535156 -17.039062 1.367188 -17.089844 1.199219 -17.039062 C 1.078125 -16.992188 1.03125 -16.921875 1.03125 -16.800781 C 1.03125 -16.535156 1.007812 -16.273438 1.007812 -16.03125 C 0.960938 -14.375 0.960938 -12.71875 1.007812 -11.0625 L 1.078125 -9.121094 C 1.078125 -8.6875 1.078125 -8.257812 1.105469 -7.847656 C 1.128906 -7.105469 1.175781 -6.359375 1.199219 -5.640625 C 1.222656 -4.703125 1.222656 -3.769531 1.246094 -2.832031 Z M 4.726562 -10.753906 L 4.726562 -13.464844 C 4.726562 -13.609375 4.726562 -13.609375 4.847656 -13.609375 C 5.015625 -13.632812 5.160156 -13.632812 5.304688 -13.65625 C 5.664062 -13.703125 6.023438 -13.703125 6.382812 -13.65625 C 6.671875 -13.632812 6.910156 -13.511719 7.105469 -13.296875 C 7.34375 -13.078125 7.511719 -12.839844 7.632812 -12.527344 C 7.703125 -12.289062 7.847656 -12.070312 7.871094 -11.785156 C 7.871094 -11.59375 7.894531 -11.425781 7.894531 -11.230469 C 7.921875 -10.65625 7.96875 -10.105469 7.847656 -9.550781 C 7.777344 -9.214844 7.632812 -8.878906 7.390625 -8.617188 C 7.222656 -8.449219 7.03125 -8.304688 6.816406 -8.183594 C 6.550781 -8.039062 6.265625 -7.992188 5.976562 -7.894531 C 5.929688 -7.871094 5.878906 -7.871094 5.832031 -7.871094 L 4.871094 -7.871094 C 4.679688 -7.871094 4.679688 -7.871094 4.679688 -8.089844 C 4.679688 -8.664062 4.703125 -9.265625 4.726562 -9.839844 Z M 4.726562 -10.753906 "/></g></g></g><g fill="#000000" fill-opacity="1"><g transform="translate(754.709178, 410.425781)"><g><path d="M 11.375 -11.808594 L 11.398438 -11.808594 L 11.398438 -14.351562 C 11.398438 -14.902344 11.398438 -15.433594 11.425781 -15.960938 C 11.425781 -16.320312 11.425781 -16.679688 11.398438 -17.039062 C 11.398438 -17.28125 11.304688 -17.351562 11.0625 -17.351562 C 11.039062 -17.351562 11.039062 -17.328125 11.015625 -17.328125 C 10.800781 -17.304688 10.558594 -17.28125 10.34375 -17.257812 L 9.910156 -17.183594 C 9.550781 -17.089844 9.214844 -16.992188 8.855469 -16.871094 C 8.6875 -16.847656 8.664062 -16.777344 8.640625 -16.609375 C 8.59375 -16.105469 8.566406 -15.574219 8.519531 -15.046875 C 8.425781 -14.089844 8.328125 -13.128906 8.257812 -12.191406 C 8.183594 -11.015625 8.160156 -9.863281 8.113281 -8.710938 C 8.089844 -7.726562 8.0625 -6.742188 7.894531 -5.785156 C 7.800781 -5.136719 7.609375 -4.488281 7.34375 -3.886719 C 7.246094 -3.625 7.105469 -3.382812 6.910156 -3.191406 C 6.550781 -2.832031 5.785156 -2.832031 5.425781 -3 C 5.375 -3.023438 5.351562 -3.046875 5.328125 -3.070312 C 4.894531 -3.40625 4.585938 -3.839844 4.390625 -4.320312 C 4.222656 -4.800781 4.105469 -5.304688 4.078125 -5.808594 L 4.007812 -7.96875 L 4.007812 -10.558594 C 4.007812 -10.777344 4.03125 -10.96875 4.03125 -11.160156 C 4.054688 -11.449219 4.078125 -11.761719 4.078125 -12.070312 L 4.078125 -12.40625 C 4.128906 -13.105469 4.175781 -13.800781 4.199219 -14.496094 L 4.273438 -16.585938 C 4.273438 -16.871094 4.175781 -16.96875 3.910156 -16.992188 C 3.742188 -17.015625 3.574219 -17.015625 3.40625 -17.039062 C 2.761719 -17.136719 2.136719 -17.136719 1.511719 -16.992188 C 1.296875 -16.945312 1.246094 -16.921875 1.222656 -16.703125 C 1.175781 -16.320312 1.152344 -15.960938 1.152344 -15.601562 C 1.128906 -14.902344 1.128906 -14.183594 1.105469 -13.488281 C 1.078125 -12.097656 1.03125 -10.703125 0.984375 -9.289062 C 0.960938 -8.472656 1.03125 -7.632812 1.105469 -6.816406 C 1.128906 -6.503906 1.175781 -6.214844 1.199219 -5.929688 C 1.222656 -5.640625 1.246094 -5.375 1.296875 -5.113281 C 1.367188 -4.609375 1.464844 -4.105469 1.609375 -3.625 C 1.726562 -3.214844 1.847656 -2.808594 2.039062 -2.425781 C 2.160156 -2.207031 2.257812 -1.992188 2.375 -1.777344 C 2.542969 -1.441406 2.710938 -1.105469 3.023438 -0.863281 C 3.40625 -0.574219 3.792969 -0.3125 4.246094 -0.144531 C 4.558594 -0.0234375 4.871094 0.0703125 5.183594 0.191406 C 5.542969 0.335938 5.953125 0.382812 6.335938 0.359375 C 6.71875 0.335938 7.128906 0.335938 7.488281 0.214844 C 7.65625 0.167969 7.824219 0.121094 7.992188 0.0976562 C 8.519531 -0.046875 9 -0.265625 9.382812 -0.671875 C 9.433594 -0.695312 9.480469 -0.71875 9.503906 -0.769531 C 9.625 -0.863281 9.742188 -0.984375 9.839844 -1.105469 C 10.320312 -1.609375 10.558594 -2.257812 10.753906 -2.929688 C 11.136719 -4.175781 11.257812 -5.472656 11.304688 -6.769531 C 11.351562 -7.703125 11.328125 -8.640625 11.351562 -9.574219 C 11.351562 -10.320312 11.375 -11.0625 11.375 -11.808594 Z M 11.375 -11.808594 "/></g></g></g><g fill="#000000" fill-opacity="1"><g transform="translate(767.093207, 410.425781)"><g><path d="M 4.320312 -7.945312 C 4.296875 -9.3125 4.296875 -10.703125 4.273438 -12.070312 C 4.273438 -12.382812 4.246094 -12.671875 4.222656 -12.984375 C 4.222656 -13.296875 4.199219 -13.609375 4.175781 -13.921875 L 4.175781 -16.894531 C 4.152344 -17.113281 4.078125 -17.183594 3.863281 -17.183594 C 3.742188 -17.183594 3.625 -17.160156 3.527344 -17.160156 C 3.335938 -17.160156 3.167969 -17.136719 3 -17.136719 C 2.542969 -17.136719 2.113281 -17.160156 1.65625 -17.136719 C 1.222656 -17.136719 1.175781 -17.0625 1.152344 -16.632812 C 1.105469 -15.960938 1.054688 -15.265625 1.007812 -14.566406 C 0.960938 -13.632812 0.984375 -12.671875 1.054688 -11.734375 C 1.078125 -11.257812 1.128906 -10.777344 1.128906 -10.320312 L 1.128906 -6.71875 C 1.175781 -5.113281 1.054688 -3.480469 1.007812 -1.847656 C 0.984375 -1.296875 1.007812 -0.769531 0.984375 -0.214844 C 0.984375 -0.0234375 1.078125 0.0976562 1.246094 0.167969 C 1.320312 0.191406 1.367188 0.191406 1.441406 0.191406 L 3.769531 0.191406 C 3.910156 0.191406 3.984375 0.121094 3.984375 -0.046875 C 4.007812 -0.0976562 3.984375 -0.144531 3.984375 -0.214844 C 4.007812 -0.433594 4.007812 -0.648438 4.03125 -0.863281 C 4.054688 -1.585938 4.128906 -2.304688 4.152344 -3.023438 C 4.175781 -3.550781 4.175781 -4.078125 4.199219 -4.609375 C 4.222656 -5.015625 4.222656 -5.425781 4.246094 -5.808594 C 4.273438 -6.503906 4.296875 -7.222656 4.320312 -7.945312 Z M 4.320312 -7.945312 "/></g></g></g><g fill="#000000" fill-opacity="1"><g transform="translate(772.373213, 410.425781)"><g><path d="M 3.550781 -6.960938 L 3.503906 -6.960938 L 3.503906 -4.390625 C 3.503906 -3.046875 3.527344 -1.679688 3.550781 -0.335938 C 3.550781 0.046875 3.671875 0.144531 4.007812 0.144531 C 4.246094 0.121094 4.488281 0.121094 4.726562 0.121094 L 5.160156 0.121094 C 5.328125 0.121094 5.519531 0.0976562 5.6875 0.0976562 C 5.902344 0.0703125 6.121094 0.046875 6.3125 0.0234375 C 6.433594 0 6.503906 -0.0703125 6.527344 -0.191406 C 6.527344 -0.289062 6.550781 -0.382812 6.550781 -0.480469 C 6.574219 -2.566406 6.574219 -4.65625 6.601562 -6.71875 C 6.601562 -7.679688 6.601562 -8.617188 6.625 -9.550781 C 6.648438 -10.34375 6.695312 -11.136719 6.695312 -11.929688 C 6.71875 -12.457031 6.71875 -12.984375 6.71875 -13.511719 C 6.71875 -13.726562 6.71875 -13.703125 6.910156 -13.726562 C 7.320312 -13.726562 7.703125 -13.753906 8.113281 -13.800781 C 8.566406 -13.824219 9 -13.894531 9.457031 -13.96875 C 9.71875 -14.015625 9.792969 -14.089844 9.792969 -14.375 L 9.792969 -16.632812 C 9.792969 -16.871094 9.71875 -16.945312 9.480469 -16.945312 L 6.960938 -17.015625 C 6.070312 -17.039062 5.183594 -17.039062 4.296875 -17.039062 L 1.777344 -17.113281 C 1.488281 -17.113281 1.199219 -17.136719 0.910156 -17.160156 C 0.792969 -17.160156 0.695312 -17.136719 0.601562 -17.015625 C 0.550781 -16.894531 0.503906 -16.777344 0.503906 -16.65625 L 0.503906 -14.472656 C 0.503906 -14.328125 0.480469 -14.183594 0.480469 -14.039062 C 0.480469 -13.871094 0.550781 -13.800781 0.695312 -13.800781 C 1.078125 -13.800781 1.464844 -13.777344 1.847656 -13.777344 C 2.328125 -13.800781 2.785156 -13.800781 3.265625 -13.824219 C 3.433594 -13.824219 3.433594 -13.824219 3.433594 -13.632812 L 3.433594 -12.433594 C 3.457031 -11.519531 3.527344 -10.609375 3.527344 -9.71875 C 3.550781 -8.808594 3.550781 -7.871094 3.550781 -6.960938 Z M 3.550781 -6.960938 "/></g></g></g><g fill="#000000" fill-opacity="1"><g transform="translate(734.449189, 439.511717)"><g><path d="M 5.28125 -11.710938 C 5.304688 -11.808594 5.304688 -11.902344 5.328125 -11.976562 C 5.398438 -12.359375 5.496094 -12.71875 5.566406 -13.105469 C 5.617188 -13.296875 5.617188 -13.296875 5.785156 -13.320312 C 6.167969 -13.367188 6.574219 -13.441406 6.960938 -13.488281 C 7.390625 -13.535156 7.824219 -13.535156 8.28125 -13.558594 C 8.640625 -13.585938 9.023438 -13.609375 9.382812 -13.632812 C 9.671875 -13.679688 9.769531 -13.777344 9.792969 -14.0625 L 9.792969 -14.183594 C 9.792969 -14.761719 9.792969 -15.3125 9.816406 -15.886719 C 9.816406 -16.054688 9.792969 -16.246094 9.769531 -16.414062 C 9.769531 -16.609375 9.625 -16.777344 9.480469 -16.777344 C 9.167969 -16.800781 8.855469 -16.847656 8.519531 -16.847656 C 7.800781 -16.871094 7.105469 -16.894531 6.382812 -16.894531 C 5.230469 -16.894531 4.105469 -16.921875 2.953125 -16.921875 C 2.902344 -16.921875 2.855469 -16.894531 2.808594 -16.871094 C 2.710938 -16.777344 2.59375 -16.679688 2.566406 -16.511719 C 2.566406 -16.414062 2.542969 -16.320312 2.519531 -16.222656 C 2.425781 -15.527344 2.351562 -14.855469 2.230469 -14.160156 C 2.0625 -13.175781 1.871094 -12.214844 1.679688 -11.230469 C 1.535156 -10.414062 1.414062 -9.625 1.34375 -8.808594 L 1.34375 -8.59375 C 1.34375 -8.519531 1.367188 -8.449219 1.464844 -8.425781 L 1.96875 -8.28125 C 2.183594 -8.207031 2.375 -8.136719 2.59375 -8.089844 C 2.878906 -7.992188 3.167969 -7.871094 3.503906 -7.847656 C 3.671875 -7.847656 3.839844 -7.777344 3.984375 -7.753906 C 4.054688 -7.726562 4.105469 -7.703125 4.175781 -7.703125 C 4.296875 -7.65625 4.390625 -7.726562 4.464844 -7.824219 C 4.585938 -7.96875 4.703125 -8.113281 4.800781 -8.257812 C 4.96875 -8.449219 5.183594 -8.542969 5.398438 -8.617188 C 5.976562 -8.808594 6.625 -8.496094 6.839844 -7.96875 C 6.886719 -7.847656 6.960938 -7.703125 7.007812 -7.585938 C 7.296875 -6.648438 7.34375 -5.734375 7.175781 -4.777344 C 7.128906 -4.367188 6.984375 -4.007812 6.71875 -3.671875 C 6.550781 -3.457031 6.359375 -3.289062 6.070312 -3.265625 C 5.832031 -3.214844 5.59375 -3.214844 5.328125 -3.238281 C 5.183594 -3.238281 5.039062 -3.289062 4.894531 -3.359375 C 4.464844 -3.601562 4.078125 -3.9375 3.816406 -4.367188 C 3.671875 -4.65625 3.550781 -4.96875 3.433594 -5.257812 C 3.359375 -5.449219 3.382812 -5.425781 3.167969 -5.425781 C 3.121094 -5.425781 3.046875 -5.425781 3 -5.375 C 2.855469 -5.28125 2.710938 -5.183594 2.59375 -5.0625 C 2.28125 -4.753906 2.015625 -4.441406 1.726562 -4.128906 C 1.511719 -3.886719 1.296875 -3.648438 1.078125 -3.433594 C 0.984375 -3.335938 0.960938 -3.238281 1.007812 -3.121094 C 1.03125 -3.070312 1.054688 -3 1.078125 -2.953125 C 1.414062 -2.425781 1.679688 -1.847656 2.113281 -1.390625 C 2.113281 -1.367188 2.136719 -1.34375 2.136719 -1.34375 C 2.304688 -1.078125 2.496094 -0.886719 2.710938 -0.695312 C 3.121094 -0.335938 3.625 -0.0976562 4.152344 0.0703125 C 4.558594 0.191406 4.992188 0.289062 5.425781 0.335938 C 5.878906 0.382812 6.335938 0.359375 6.792969 0.289062 C 7.199219 0.238281 7.585938 0.0703125 7.945312 -0.121094 C 8.304688 -0.3125 8.640625 -0.550781 8.855469 -0.886719 C 9.097656 -1.246094 9.3125 -1.632812 9.527344 -2.015625 C 9.671875 -2.257812 9.769531 -2.519531 9.863281 -2.785156 C 10.175781 -3.625 10.367188 -4.488281 10.441406 -5.375 C 10.535156 -6.382812 10.511719 -7.390625 10.34375 -8.398438 C 10.222656 -9 10.03125 -9.574219 9.695312 -10.078125 C 9.550781 -10.320312 9.382812 -10.535156 9.214844 -10.753906 C 9 -11.0625 8.6875 -11.304688 8.351562 -11.472656 C 7.871094 -11.710938 7.390625 -11.855469 6.839844 -11.878906 C 6.433594 -11.902344 6 -11.878906 5.59375 -11.785156 C 5.496094 -11.761719 5.398438 -11.734375 5.28125 -11.710938 Z M 5.28125 -11.710938 "/></g></g></g><g fill="#000000" fill-opacity="1"><g transform="translate(745.921215, 439.511717)"><g><path d="M 3.960938 -13.007812 C 3.984375 -12.574219 4.007812 -12.191406 4.007812 -11.785156 C 4.007812 -10.007812 4.054688 -8.230469 4.128906 -6.457031 C 4.152344 -5.710938 4.128906 -4.96875 4.128906 -4.222656 C 4.128906 -3.289062 4.105469 -2.375 4.105469 -1.464844 L 4.105469 -0.335938 C 4.105469 -0.0703125 4.320312 0.121094 4.585938 0.0976562 C 4.726562 0.0703125 4.847656 0.0703125 4.992188 0.0703125 L 6.648438 0.0703125 C 6.742188 0.0703125 6.816406 0.0703125 6.910156 0.046875 C 7.105469 -0.0234375 7.199219 -0.144531 7.199219 -0.359375 C 7.199219 -0.984375 7.175781 -1.609375 7.175781 -2.230469 C 7.199219 -3.191406 7.222656 -4.152344 7.222656 -5.113281 C 7.222656 -7.078125 7.199219 -9.023438 7.199219 -10.96875 C 7.199219 -12 7.175781 -13.007812 7.078125 -14.039062 C 7.054688 -14.449219 7.054688 -14.878906 7.054688 -15.289062 C 7.054688 -15.503906 7.078125 -15.695312 7.078125 -15.886719 C 7.105469 -16.078125 7.105469 -16.246094 7.105469 -16.414062 L 7.105469 -16.753906 C 7.078125 -16.871094 6.984375 -16.945312 6.863281 -16.96875 C 6.671875 -16.992188 6.480469 -17.015625 6.289062 -17.015625 C 5.6875 -17.039062 5.089844 -17.039062 4.488281 -17.039062 C 4.246094 -17.0625 4.054688 -16.96875 3.886719 -16.800781 C 3.816406 -16.726562 3.71875 -16.65625 3.625 -16.585938 C 3.289062 -16.296875 2.953125 -15.984375 2.617188 -15.71875 C 2.257812 -15.433594 1.894531 -15.191406 1.558594 -14.953125 L 1.199219 -14.664062 C 1.054688 -14.566406 0.984375 -14.425781 0.984375 -14.257812 C 0.984375 -14.183594 0.960938 -14.113281 0.960938 -14.0625 C 0.984375 -13.558594 0.984375 -13.054688 1.007812 -12.550781 C 1.007812 -12.265625 1.054688 -11.976562 1.128906 -11.6875 C 1.175781 -11.398438 1.414062 -11.304688 1.679688 -11.472656 C 2.136719 -11.785156 2.640625 -12.023438 3.070312 -12.40625 C 3.144531 -12.480469 3.238281 -12.503906 3.335938 -12.574219 L 3.769531 -12.863281 C 3.816406 -12.910156 3.886719 -12.960938 3.960938 -13.007812 Z M 3.960938 -13.007812 "/></g></g></g><g fill="#000000" fill-opacity="1"><g transform="translate(754.105228, 439.511717)"><g><path d="M 4.199219 -1.296875 C 4.199219 -1.464844 4.199219 -1.609375 4.175781 -1.777344 C 4.105469 -2.519531 3.480469 -3 2.929688 -3.023438 C 2.761719 -3.046875 2.59375 -3.046875 2.425781 -3.070312 C 2.0625 -3.070312 1.777344 -2.929688 1.585938 -2.640625 C 1.414062 -2.398438 1.273438 -2.160156 1.128906 -1.894531 C 0.984375 -1.632812 0.9375 -1.34375 0.984375 -1.03125 C 1.007812 -0.742188 1.054688 -0.457031 1.296875 -0.238281 C 1.800781 0.238281 2.398438 0.433594 3.097656 0.289062 C 3.503906 0.214844 3.816406 0 4.007812 -0.382812 C 4.152344 -0.671875 4.199219 -0.984375 4.199219 -1.296875 Z M 4.199219 -1.296875 "/></g></g></g><g fill="#000000" fill-opacity="1"><g transform="translate(759.265243, 439.511717)"><g><path d="M 3.960938 -13.007812 C 3.984375 -12.574219 4.007812 -12.191406 4.007812 -11.785156 C 4.007812 -10.007812 4.054688 -8.230469 4.128906 -6.457031 C 4.152344 -5.710938 4.128906 -4.96875 4.128906 -4.222656 C 4.128906 -3.289062 4.105469 -2.375 4.105469 -1.464844 L 4.105469 -0.335938 C 4.105469 -0.0703125 4.320312 0.121094 4.585938 0.0976562 C 4.726562 0.0703125 4.847656 0.0703125 4.992188 0.0703125 L 6.648438 0.0703125 C 6.742188 0.0703125 6.816406 0.0703125 6.910156 0.046875 C 7.105469 -0.0234375 7.199219 -0.144531 7.199219 -0.359375 C 7.199219 -0.984375 7.175781 -1.609375 7.175781 -2.230469 C 7.199219 -3.191406 7.222656 -4.152344 7.222656 -5.113281 C 7.222656 -7.078125 7.199219 -9.023438 7.199219 -10.96875 C 7.199219 -12 7.175781 -13.007812 7.078125 -14.039062 C 7.054688 -14.449219 7.054688 -14.878906 7.054688 -15.289062 C 7.054688 -15.503906 7.078125 -15.695312 7.078125 -15.886719 C 7.105469 -16.078125 7.105469 -16.246094 7.105469 -16.414062 L 7.105469 -16.753906 C 7.078125 -16.871094 6.984375 -16.945312 6.863281 -16.96875 C 6.671875 -16.992188 6.480469 -17.015625 6.289062 -17.015625 C 5.6875 -17.039062 5.089844 -17.039062 4.488281 -17.039062 C 4.246094 -17.0625 4.054688 -16.96875 3.886719 -16.800781 C 3.816406 -16.726562 3.71875 -16.65625 3.625 -16.585938 C 3.289062 -16.296875 2.953125 -15.984375 2.617188 -15.71875 C 2.257812 -15.433594 1.894531 -15.191406 1.558594 -14.953125 L 1.199219 -14.664062 C 1.054688 -14.566406 0.984375 -14.425781 0.984375 -14.257812 C 0.984375 -14.183594 0.960938 -14.113281 0.960938 -14.0625 C 0.984375 -13.558594 0.984375 -13.054688 1.007812 -12.550781 C 1.007812 -12.265625 1.054688 -11.976562 1.128906 -11.6875 C 1.175781 -11.398438 1.414062 -11.304688 1.679688 -11.472656 C 2.136719 -11.785156 2.640625 -12.023438 3.070312 -12.40625 C 3.144531 -12.480469 3.238281 -12.503906 3.335938 -12.574219 L 3.769531 -12.863281 C 3.816406 -12.910156 3.886719 -12.960938 3.960938 -13.007812 Z M 3.960938 -13.007812 "/></g></g></g><g fill="#000000" fill-opacity="1"><g transform="translate(767.449256, 439.511717)"><g><path d="M 10.152344 -13.558594 C 9.984375 -13.558594 9.886719 -13.511719 9.816406 -13.414062 C 9.769531 -13.34375 9.71875 -13.296875 9.671875 -13.246094 C 9.40625 -12.9375 9.144531 -12.648438 8.878906 -12.335938 C 8.617188 -12.046875 8.375 -11.761719 8.089844 -11.472656 C 7.800781 -11.183594 7.488281 -10.894531 7.175781 -10.609375 C 6.167969 -9.648438 5.160156 -8.710938 4.175781 -7.777344 C 4.03125 -7.632812 3.886719 -7.511719 3.769531 -7.367188 C 3.097656 -6.527344 2.425781 -5.710938 1.726562 -4.871094 C 1.585938 -4.703125 1.609375 -4.488281 1.585938 -4.296875 C 1.585938 -4.273438 1.632812 -4.222656 1.65625 -4.199219 C 1.945312 -3.816406 2.257812 -3.457031 2.617188 -3.144531 C 2.808594 -3 3.023438 -2.929688 3.238281 -2.878906 C 3.3125 -2.878906 3.382812 -2.878906 3.433594 -2.902344 C 3.648438 -3 3.863281 -3.097656 4.03125 -3.289062 C 4.414062 -3.695312 4.871094 -4.054688 5.28125 -4.441406 C 5.710938 -4.800781 6.097656 -5.230469 6.503906 -5.617188 C 7.441406 -6.527344 8.351562 -7.414062 9.289062 -8.304688 C 9.433594 -8.449219 9.574219 -8.566406 9.71875 -8.6875 C 10.03125 -9 10.367188 -9.3125 10.679688 -9.648438 C 11.136719 -10.152344 11.566406 -10.679688 12 -11.207031 C 12.046875 -11.257812 12.097656 -11.328125 12.144531 -11.398438 C 12.214844 -11.542969 12.289062 -11.734375 12.191406 -11.902344 C 12.023438 -12.167969 11.855469 -12.433594 11.617188 -12.625 C 11.304688 -12.839844 11.089844 -13.152344 10.726562 -13.320312 C 10.726562 -13.320312 10.703125 -13.320312 10.703125 -13.34375 C 10.535156 -13.511719 10.34375 -13.535156 10.152344 -13.558594 Z M 5.953125 -11.855469 L 5.953125 -12.097656 C 5.929688 -12.238281 5.902344 -12.382812 5.855469 -12.527344 C 5.664062 -12.9375 5.351562 -13.273438 4.96875 -13.558594 C 4.800781 -13.65625 4.632812 -13.753906 4.464844 -13.871094 C 4.078125 -14.136719 3.648438 -14.160156 3.191406 -14.0625 C 2.976562 -14.015625 2.785156 -13.96875 2.566406 -13.894531 C 2.015625 -13.703125 1.609375 -13.390625 1.34375 -12.839844 C 1.054688 -12.214844 0.984375 -11.542969 0.960938 -10.847656 C 0.960938 -10.777344 0.984375 -10.679688 1.054688 -10.609375 C 1.175781 -10.414062 1.34375 -10.246094 1.488281 -10.054688 C 1.585938 -9.960938 1.65625 -9.863281 1.753906 -9.792969 C 2.207031 -9.480469 2.734375 -9.3125 3.289062 -9.289062 C 3.71875 -9.289062 4.152344 -9.335938 4.558594 -9.457031 C 4.753906 -9.527344 4.945312 -9.625 5.113281 -9.769531 C 5.425781 -10.007812 5.617188 -10.34375 5.734375 -10.703125 C 5.902344 -11.0625 5.953125 -11.449219 5.953125 -11.855469 Z M 3.457031 -11.328125 C 3.335938 -11.351562 3.238281 -11.351562 3.144531 -11.398438 C 3.023438 -11.449219 3.023438 -11.496094 3.046875 -11.617188 C 3.097656 -11.855469 3.335938 -12.097656 3.574219 -12.144531 C 3.648438 -12.167969 3.71875 -12.144531 3.769531 -12.070312 C 3.863281 -11.929688 3.910156 -11.785156 3.910156 -11.617188 C 3.886719 -11.496094 3.839844 -11.425781 3.742188 -11.375 C 3.648438 -11.351562 3.550781 -11.328125 3.457031 -11.328125 Z M 10.152344 -7.34375 C 9.527344 -7.367188 9.023438 -7.152344 8.59375 -6.742188 C 8.304688 -6.433594 8.089844 -6.097656 7.921875 -5.710938 C 7.753906 -5.28125 7.703125 -4.824219 7.726562 -4.367188 C 7.753906 -4.105469 7.800781 -3.839844 7.96875 -3.625 C 8.183594 -3.359375 8.375 -3.097656 8.664062 -2.902344 C 9.121094 -2.59375 9.648438 -2.496094 10.199219 -2.472656 C 10.824219 -2.449219 11.328125 -2.6875 11.734375 -3.121094 C 12.265625 -3.71875 12.574219 -4.441406 12.550781 -5.28125 C 12.527344 -5.566406 12.457031 -5.878906 12.265625 -6.097656 C 11.953125 -6.457031 11.640625 -6.816406 11.207031 -7.03125 C 10.847656 -7.222656 10.511719 -7.367188 10.152344 -7.34375 Z M 10.632812 -4.777344 C 10.632812 -4.464844 10.488281 -4.34375 10.199219 -4.464844 C 10.007812 -4.535156 9.816406 -4.585938 9.742188 -4.800781 C 9.71875 -4.921875 9.695312 -5.015625 9.792969 -5.089844 C 9.839844 -5.160156 9.886719 -5.207031 9.960938 -5.257812 C 10.128906 -5.375 10.222656 -5.375 10.390625 -5.230469 C 10.511719 -5.113281 10.632812 -4.96875 10.632812 -4.777344 Z M 10.632812 -4.777344 "/></g></g></g><g fill="#000000" fill-opacity="1"><g transform="translate(21.316405, 386.835938)"><g><path d="M 4.128906 -8.664062 C 4.152344 -8.664062 4.152344 -8.6875 4.175781 -8.6875 C 4.175781 -8.664062 4.199219 -8.664062 4.199219 -8.640625 C 4.390625 -8.136719 4.726562 -7.703125 4.992188 -7.246094 C 5.351562 -6.601562 5.734375 -5.976562 6.121094 -5.328125 C 6.40625 -4.871094 6.671875 -4.441406 6.960938 -4.007812 C 7.273438 -3.527344 7.609375 -3.097656 7.847656 -2.617188 C 7.992188 -2.304688 8.136719 -2.015625 8.28125 -1.726562 C 8.59375 -1.222656 8.929688 -0.71875 9.238281 -0.191406 C 9.3125 -0.0976562 9.40625 0 9.480469 0.0976562 C 9.550781 0.144531 9.648438 0.167969 9.695312 0.167969 C 10.007812 0.167969 10.320312 0.144531 10.632812 0.144531 C 10.871094 0.121094 11.136719 0.0703125 11.398438 0.0976562 C 11.664062 0.0976562 11.855469 0 12.046875 -0.214844 C 12.121094 -0.3125 12.167969 -0.382812 12.167969 -0.527344 C 12.144531 -0.984375 12.144531 -1.464844 12.144531 -1.921875 C 12.097656 -2.902344 12.046875 -3.863281 12.046875 -4.847656 C 12.023438 -6.40625 12.046875 -7.992188 12.023438 -9.550781 C 12.023438 -10.921875 12 -12.289062 11.953125 -13.632812 C 11.929688 -14.640625 11.808594 -15.648438 11.832031 -16.65625 C 11.832031 -16.777344 11.761719 -16.871094 11.664062 -16.921875 C 11.617188 -16.945312 11.566406 -16.96875 11.496094 -16.96875 C 11.328125 -17.039062 11.113281 -17.015625 10.921875 -17.015625 C 10.511719 -17.039062 10.078125 -17.0625 9.671875 -17.089844 C 9.457031 -17.089844 9.265625 -17.0625 9.070312 -16.992188 C 8.902344 -16.921875 8.808594 -16.847656 8.808594 -16.65625 C 8.808594 -15.960938 8.808594 -15.265625 8.832031 -14.59375 C 8.855469 -13.800781 8.953125 -13.007812 8.953125 -12.214844 C 8.976562 -10.558594 8.976562 -8.902344 8.976562 -7.273438 C 8.976562 -7.222656 8.953125 -7.175781 8.953125 -7.128906 C 8.902344 -7.152344 8.878906 -7.175781 8.878906 -7.199219 C 8.542969 -7.800781 8.183594 -8.398438 7.871094 -9 C 7.65625 -9.359375 7.488281 -9.71875 7.296875 -10.078125 C 6.695312 -11.183594 6.097656 -12.289062 5.566406 -13.414062 C 5.230469 -14.113281 4.847656 -14.808594 4.558594 -15.550781 C 4.414062 -15.9375 4.199219 -16.296875 4.03125 -16.679688 C 3.960938 -16.871094 3.816406 -16.992188 3.625 -17.015625 L 2.761719 -17.089844 L 1.535156 -17.089844 C 1.488281 -17.089844 1.414062 -17.089844 1.367188 -17.0625 C 1.128906 -16.921875 0.960938 -16.726562 0.960938 -16.414062 C 0.960938 -16.273438 0.960938 -16.152344 0.984375 -16.03125 C 0.984375 -15.886719 1.007812 -15.742188 1.03125 -15.574219 C 1.03125 -14.976562 1.054688 -14.351562 1.054688 -13.726562 L 1.054688 -8.449219 C 1.078125 -7.535156 1.105469 -6.625 1.128906 -5.734375 C 1.128906 -4.007812 1.105469 -2.257812 1.105469 -0.550781 C 1.105469 -0.433594 1.105469 -0.335938 1.128906 -0.214844 C 1.152344 -0.0234375 1.296875 0.121094 1.488281 0.121094 C 2.0625 0.144531 2.640625 0.214844 3.214844 0.167969 C 3.433594 0.144531 3.625 0.0976562 3.816406 0 C 4.007812 -0.0976562 4.105469 -0.3125 4.105469 -0.527344 C 4.078125 -1.128906 4.054688 -1.726562 4.054688 -2.328125 C 4.054688 -3.121094 4.105469 -3.9375 4.105469 -4.726562 C 4.128906 -5.976562 4.128906 -7.246094 4.128906 -8.496094 Z M 4.128906 -8.664062 "/></g></g></g><g fill="#000000" fill-opacity="1"><g transform="translate(34.444425, 386.835938)"><g><path d="M 1.007812 -7.65625 L 1.007812 -7.367188 C 0.9375 -6.359375 0.984375 -5.351562 1.246094 -4.34375 C 1.34375 -4.03125 1.441406 -3.695312 1.558594 -3.382812 C 1.703125 -3.023438 1.847656 -2.664062 2.113281 -2.375 C 2.113281 -2.375 2.136719 -2.328125 2.136719 -2.304688 C 2.328125 -1.96875 2.59375 -1.679688 2.878906 -1.414062 C 3.214844 -1.128906 3.550781 -0.839844 3.910156 -0.601562 C 4.152344 -0.40625 4.414062 -0.265625 4.726562 -0.191406 C 5.015625 -0.121094 5.304688 0 5.59375 0.046875 C 5.953125 0.121094 6.3125 0.167969 6.671875 0.214844 L 6.742188 0.214844 C 7.152344 0.167969 7.558594 0.144531 7.96875 0 C 8.230469 -0.0703125 8.472656 -0.167969 8.710938 -0.289062 C 9.289062 -0.574219 9.71875 -1.007812 10.128906 -1.464844 C 10.34375 -1.726562 10.535156 -1.96875 10.726562 -2.230469 C 10.992188 -2.640625 11.28125 -3 11.472656 -3.457031 C 11.566406 -3.671875 11.6875 -3.910156 11.785156 -4.128906 C 12.097656 -4.871094 12.238281 -5.640625 12.359375 -6.40625 C 12.550781 -7.585938 12.671875 -8.785156 12.648438 -9.960938 C 12.625 -10.488281 12.574219 -11.015625 12.457031 -11.519531 C 12.238281 -12.433594 11.976562 -13.296875 11.6875 -14.183594 C 11.472656 -14.734375 11.207031 -15.289062 10.847656 -15.769531 C 10.632812 -16.078125 10.367188 -16.34375 10.03125 -16.558594 C 9.601562 -16.824219 9.167969 -17.0625 8.6875 -17.230469 C 8.28125 -17.375 7.871094 -17.449219 7.441406 -17.472656 C 6.984375 -17.496094 6.527344 -17.449219 6.097656 -17.375 C 5.6875 -17.304688 5.304688 -17.230469 4.96875 -17.015625 C 4.945312 -17.015625 4.945312 -16.992188 4.921875 -16.992188 C 4.609375 -16.921875 4.34375 -16.703125 4.105469 -16.511719 C 3.816406 -16.296875 3.527344 -16.054688 3.265625 -15.816406 C 2.734375 -15.359375 2.328125 -14.808594 2.039062 -14.160156 C 1.992188 -14.015625 1.945312 -13.871094 1.871094 -13.726562 C 1.65625 -13.273438 1.535156 -12.769531 1.441406 -12.238281 C 1.34375 -11.640625 1.296875 -11.039062 1.199219 -10.441406 C 1.152344 -10.007812 1.078125 -9.574219 1.054688 -9.144531 C 1.007812 -8.664062 1.007812 -8.160156 1.007812 -7.65625 Z M 8.878906 -8.902344 C 8.878906 -8.015625 8.808594 -7.128906 8.664062 -6.238281 C 8.59375 -5.664062 8.398438 -5.113281 8.136719 -4.585938 C 7.96875 -4.222656 7.703125 -3.910156 7.367188 -3.71875 C 7.03125 -3.503906 6.671875 -3.40625 6.265625 -3.550781 C 5.953125 -3.671875 5.640625 -3.816406 5.351562 -3.984375 C 5.015625 -4.199219 4.800781 -4.488281 4.632812 -4.824219 C 4.414062 -5.230469 4.34375 -5.664062 4.273438 -6.097656 C 4.105469 -7.078125 4.03125 -8.089844 4.078125 -9.070312 C 4.152344 -10.128906 4.34375 -11.183594 4.871094 -12.121094 C 5.160156 -12.601562 5.496094 -13.03125 5.902344 -13.414062 C 6.070312 -13.609375 6.289062 -13.679688 6.550781 -13.679688 C 6.839844 -13.65625 7.128906 -13.632812 7.390625 -13.535156 C 7.535156 -13.488281 7.632812 -13.414062 7.703125 -13.320312 C 7.96875 -13.054688 8.136719 -12.71875 8.28125 -12.382812 C 8.542969 -11.785156 8.6875 -11.160156 8.761719 -10.511719 C 8.808594 -9.984375 8.832031 -9.457031 8.878906 -8.902344 Z M 8.878906 -8.902344 "/></g></g></g><g fill="#000000" fill-opacity="1"><g transform="translate(48.076455, 386.835938)"><g/></g></g><g fill="#000000" fill-opacity="1"><g transform="translate(52.876462, 386.835938)"><g><path d="M 1.007812 -8.28125 C 1.007812 -7.222656 1.007812 -6.144531 0.984375 -5.089844 L 0.984375 -3.625 C 0.984375 -2.519531 0.984375 -1.390625 1.007812 -0.265625 C 1.007812 0.0234375 1.007812 0.046875 1.320312 0.0976562 L 1.464844 0.0976562 C 1.726562 0.0976562 1.992188 0.0703125 2.230469 0.0976562 C 2.785156 0.144531 3.335938 0.144531 3.886719 0.144531 C 3.984375 0.144531 4.054688 0.121094 4.128906 0.121094 C 4.34375 0.0703125 4.441406 -0.046875 4.464844 -0.265625 C 4.464844 -0.769531 4.488281 -1.296875 4.488281 -1.800781 C 4.464844 -2.953125 4.441406 -4.105469 4.441406 -5.257812 C 4.441406 -5.929688 4.464844 -6.601562 4.488281 -7.273438 C 4.488281 -7.367188 4.511719 -7.414062 4.609375 -7.414062 C 4.824219 -7.414062 5.039062 -7.441406 5.257812 -7.441406 C 5.953125 -7.464844 6.625 -7.464844 7.296875 -7.414062 C 7.753906 -7.390625 8.230469 -7.414062 8.6875 -7.441406 C 8.832031 -7.464844 8.878906 -7.511719 8.878906 -7.679688 C 8.878906 -7.871094 8.902344 -8.0625 8.902344 -8.257812 C 8.902344 -8.785156 8.902344 -9.289062 8.878906 -9.792969 C 8.878906 -9.910156 8.832031 -10.03125 8.785156 -10.128906 C 8.6875 -10.320312 8.519531 -10.367188 8.328125 -10.390625 C 7.65625 -10.390625 6.984375 -10.414062 6.335938 -10.414062 L 6.191406 -10.414062 C 5.734375 -10.390625 5.257812 -10.367188 4.777344 -10.34375 C 4.65625 -10.34375 4.632812 -10.367188 4.632812 -10.511719 C 4.632812 -10.703125 4.65625 -10.894531 4.632812 -11.089844 C 4.632812 -11.855469 4.609375 -12.601562 4.609375 -13.367188 C 4.609375 -13.535156 4.609375 -13.535156 4.777344 -13.558594 L 5.785156 -13.632812 C 6.167969 -13.632812 6.574219 -13.679688 6.960938 -13.679688 C 7.464844 -13.703125 7.945312 -13.703125 8.449219 -13.703125 C 8.6875 -13.703125 8.953125 -13.703125 9.191406 -13.726562 C 9.574219 -13.777344 9.742188 -13.871094 9.792969 -14.28125 C 9.886719 -15 9.886719 -15.71875 9.863281 -16.441406 C 9.863281 -16.511719 9.863281 -16.558594 9.839844 -16.609375 C 9.769531 -16.847656 9.671875 -17.039062 9.382812 -17.0625 C 9.121094 -17.113281 8.855469 -17.160156 8.59375 -17.160156 C 8.207031 -17.183594 7.824219 -17.160156 7.441406 -17.160156 L 3.71875 -17.160156 C 3.023438 -17.136719 2.304688 -17.0625 1.609375 -16.96875 C 1.414062 -16.945312 1.246094 -16.871094 1.128906 -16.726562 C 1.054688 -16.679688 1.007812 -16.558594 1.007812 -16.488281 C 0.984375 -16.246094 0.960938 -16.007812 0.984375 -15.769531 C 0.984375 -14.28125 1.007812 -12.769531 1.007812 -11.257812 Z M 1.007812 -8.28125 "/></g></g></g><g fill="#000000" fill-opacity="1"><g transform="translate(63.244488, 386.835938)"><g><path d="M 1.246094 -2.832031 L 1.296875 -2.832031 L 1.296875 0.144531 C 1.296875 0.3125 1.367188 0.382812 1.558594 0.359375 C 1.894531 0.359375 2.257812 0.335938 2.59375 0.335938 C 3.238281 0.359375 3.886719 0.289062 4.511719 0.214844 C 4.632812 0.214844 4.679688 0.144531 4.703125 0.046875 L 4.703125 -0.214844 C 4.703125 -1.609375 4.703125 -3.023438 4.679688 -4.414062 C 4.679688 -4.609375 4.679688 -4.609375 4.871094 -4.632812 C 5.207031 -4.65625 5.519531 -4.679688 5.855469 -4.703125 C 5.976562 -4.726562 6.023438 -4.703125 6.046875 -4.585938 C 6.121094 -4.414062 6.191406 -4.246094 6.265625 -4.054688 C 6.40625 -3.742188 6.527344 -3.433594 6.695312 -3.121094 C 6.886719 -2.761719 7.105469 -2.425781 7.296875 -2.089844 C 7.441406 -1.847656 7.609375 -1.632812 7.703125 -1.390625 C 7.894531 -0.910156 8.113281 -0.457031 8.375 -0.0234375 C 8.449219 0.0976562 8.542969 0.144531 8.664062 0.167969 C 8.976562 0.167969 9.3125 0.191406 9.648438 0.167969 C 10.128906 0.144531 10.585938 0.0703125 11.0625 0.046875 C 11.351562 0.0234375 11.617188 0.0234375 11.855469 -0.0976562 C 12.023438 -0.167969 12.097656 -0.214844 12.070312 -0.40625 C 12.046875 -0.625 12 -0.839844 11.929688 -1.054688 C 11.761719 -1.464844 11.59375 -1.847656 11.375 -2.257812 C 11.160156 -2.640625 10.96875 -3.070312 10.824219 -3.503906 C 10.824219 -3.550781 10.800781 -3.601562 10.777344 -3.648438 C 10.609375 -4.03125 10.441406 -4.414062 10.273438 -4.777344 C 10.175781 -4.992188 10.078125 -5.183594 9.984375 -5.375 C 9.863281 -5.566406 9.742188 -5.761719 9.601562 -5.976562 C 9.574219 -6.046875 9.574219 -6.097656 9.648438 -6.144531 C 9.816406 -6.265625 9.984375 -6.382812 10.128906 -6.503906 C 10.222656 -6.601562 10.320312 -6.671875 10.390625 -6.792969 C 10.632812 -7.152344 10.871094 -7.535156 10.992188 -7.945312 C 11.207031 -8.617188 11.398438 -9.3125 11.425781 -10.03125 C 11.449219 -10.441406 11.449219 -10.871094 11.449219 -11.304688 C 11.449219 -12.433594 11.207031 -13.511719 10.800781 -14.566406 C 10.703125 -14.761719 10.65625 -14.976562 10.535156 -15.144531 C 10.03125 -15.910156 9.40625 -16.535156 8.519531 -16.824219 C 8.28125 -16.894531 8.039062 -16.945312 7.800781 -16.945312 C 7.128906 -16.945312 6.433594 -16.921875 5.734375 -16.921875 C 5.113281 -16.921875 4.464844 -16.945312 3.816406 -16.945312 C 3.648438 -16.945312 3.503906 -16.96875 3.359375 -16.96875 C 3.121094 -16.945312 2.902344 -16.921875 2.664062 -16.921875 C 2.496094 -16.921875 2.328125 -16.945312 2.160156 -16.945312 C 2.015625 -16.96875 1.871094 -16.992188 1.703125 -17.015625 C 1.535156 -17.039062 1.367188 -17.089844 1.199219 -17.039062 C 1.078125 -16.992188 1.03125 -16.921875 1.03125 -16.800781 C 1.03125 -16.535156 1.007812 -16.273438 1.007812 -16.03125 C 0.960938 -14.375 0.960938 -12.71875 1.007812 -11.0625 L 1.078125 -9.121094 C 1.078125 -8.6875 1.078125 -8.257812 1.105469 -7.847656 C 1.128906 -7.105469 1.175781 -6.359375 1.199219 -5.640625 C 1.222656 -4.703125 1.222656 -3.769531 1.246094 -2.832031 Z M 4.726562 -10.753906 L 4.726562 -13.464844 C 4.726562 -13.609375 4.726562 -13.609375 4.847656 -13.609375 C 5.015625 -13.632812 5.160156 -13.632812 5.304688 -13.65625 C 5.664062 -13.703125 6.023438 -13.703125 6.382812 -13.65625 C 6.671875 -13.632812 6.910156 -13.511719 7.105469 -13.296875 C 7.34375 -13.078125 7.511719 -12.839844 7.632812 -12.527344 C 7.703125 -12.289062 7.847656 -12.070312 7.871094 -11.785156 C 7.871094 -11.59375 7.894531 -11.425781 7.894531 -11.230469 C 7.921875 -10.65625 7.96875 -10.105469 7.847656 -9.550781 C 7.777344 -9.214844 7.632812 -8.878906 7.390625 -8.617188 C 7.222656 -8.449219 7.03125 -8.304688 6.816406 -8.183594 C 6.550781 -8.039062 6.265625 -7.992188 5.976562 -7.894531 C 5.929688 -7.871094 5.878906 -7.871094 5.832031 -7.871094 L 4.871094 -7.871094 C 4.679688 -7.871094 4.679688 -7.871094 4.679688 -8.089844 C 4.679688 -8.664062 4.703125 -9.265625 4.726562 -9.839844 Z M 4.726562 -10.753906 "/></g></g></g><g fill="#000000" fill-opacity="1"><g transform="translate(76.300514, 386.835938)"><g><path d="M 11.375 -11.808594 L 11.398438 -11.808594 L 11.398438 -14.351562 C 11.398438 -14.902344 11.398438 -15.433594 11.425781 -15.960938 C 11.425781 -16.320312 11.425781 -16.679688 11.398438 -17.039062 C 11.398438 -17.28125 11.304688 -17.351562 11.0625 -17.351562 C 11.039062 -17.351562 11.039062 -17.328125 11.015625 -17.328125 C 10.800781 -17.304688 10.558594 -17.28125 10.34375 -17.257812 L 9.910156 -17.183594 C 9.550781 -17.089844 9.214844 -16.992188 8.855469 -16.871094 C 8.6875 -16.847656 8.664062 -16.777344 8.640625 -16.609375 C 8.59375 -16.105469 8.566406 -15.574219 8.519531 -15.046875 C 8.425781 -14.089844 8.328125 -13.128906 8.257812 -12.191406 C 8.183594 -11.015625 8.160156 -9.863281 8.113281 -8.710938 C 8.089844 -7.726562 8.0625 -6.742188 7.894531 -5.785156 C 7.800781 -5.136719 7.609375 -4.488281 7.34375 -3.886719 C 7.246094 -3.625 7.105469 -3.382812 6.910156 -3.191406 C 6.550781 -2.832031 5.785156 -2.832031 5.425781 -3 C 5.375 -3.023438 5.351562 -3.046875 5.328125 -3.070312 C 4.894531 -3.40625 4.585938 -3.839844 4.390625 -4.320312 C 4.222656 -4.800781 4.105469 -5.304688 4.078125 -5.808594 L 4.007812 -7.96875 L 4.007812 -10.558594 C 4.007812 -10.777344 4.03125 -10.96875 4.03125 -11.160156 C 4.054688 -11.449219 4.078125 -11.761719 4.078125 -12.070312 L 4.078125 -12.40625 C 4.128906 -13.105469 4.175781 -13.800781 4.199219 -14.496094 L 4.273438 -16.585938 C 4.273438 -16.871094 4.175781 -16.96875 3.910156 -16.992188 C 3.742188 -17.015625 3.574219 -17.015625 3.40625 -17.039062 C 2.761719 -17.136719 2.136719 -17.136719 1.511719 -16.992188 C 1.296875 -16.945312 1.246094 -16.921875 1.222656 -16.703125 C 1.175781 -16.320312 1.152344 -15.960938 1.152344 -15.601562 C 1.128906 -14.902344 1.128906 -14.183594 1.105469 -13.488281 C 1.078125 -12.097656 1.03125 -10.703125 0.984375 -9.289062 C 0.960938 -8.472656 1.03125 -7.632812 1.105469 -6.816406 C 1.128906 -6.503906 1.175781 -6.214844 1.199219 -5.929688 C 1.222656 -5.640625 1.246094 -5.375 1.296875 -5.113281 C 1.367188 -4.609375 1.464844 -4.105469 1.609375 -3.625 C 1.726562 -3.214844 1.847656 -2.808594 2.039062 -2.425781 C 2.160156 -2.207031 2.257812 -1.992188 2.375 -1.777344 C 2.542969 -1.441406 2.710938 -1.105469 3.023438 -0.863281 C 3.40625 -0.574219 3.792969 -0.3125 4.246094 -0.144531 C 4.558594 -0.0234375 4.871094 0.0703125 5.183594 0.191406 C 5.542969 0.335938 5.953125 0.382812 6.335938 0.359375 C 6.71875 0.335938 7.128906 0.335938 7.488281 0.214844 C 7.65625 0.167969 7.824219 0.121094 7.992188 0.0976562 C 8.519531 -0.046875 9 -0.265625 9.382812 -0.671875 C 9.433594 -0.695312 9.480469 -0.71875 9.503906 -0.769531 C 9.625 -0.863281 9.742188 -0.984375 9.839844 -1.105469 C 10.320312 -1.609375 10.558594 -2.257812 10.753906 -2.929688 C 11.136719 -4.175781 11.257812 -5.472656 11.304688 -6.769531 C 11.351562 -7.703125 11.328125 -8.640625 11.351562 -9.574219 C 11.351562 -10.320312 11.375 -11.0625 11.375 -11.808594 Z M 11.375 -11.808594 "/></g></g></g><g fill="#000000" fill-opacity="1"><g transform="translate(88.684543, 386.835938)"><g><path d="M 4.320312 -7.945312 C 4.296875 -9.3125 4.296875 -10.703125 4.273438 -12.070312 C 4.273438 -12.382812 4.246094 -12.671875 4.222656 -12.984375 C 4.222656 -13.296875 4.199219 -13.609375 4.175781 -13.921875 L 4.175781 -16.894531 C 4.152344 -17.113281 4.078125 -17.183594 3.863281 -17.183594 C 3.742188 -17.183594 3.625 -17.160156 3.527344 -17.160156 C 3.335938 -17.160156 3.167969 -17.136719 3 -17.136719 C 2.542969 -17.136719 2.113281 -17.160156 1.65625 -17.136719 C 1.222656 -17.136719 1.175781 -17.0625 1.152344 -16.632812 C 1.105469 -15.960938 1.054688 -15.265625 1.007812 -14.566406 C 0.960938 -13.632812 0.984375 -12.671875 1.054688 -11.734375 C 1.078125 -11.257812 1.128906 -10.777344 1.128906 -10.320312 L 1.128906 -6.71875 C 1.175781 -5.113281 1.054688 -3.480469 1.007812 -1.847656 C 0.984375 -1.296875 1.007812 -0.769531 0.984375 -0.214844 C 0.984375 -0.0234375 1.078125 0.0976562 1.246094 0.167969 C 1.320312 0.191406 1.367188 0.191406 1.441406 0.191406 L 3.769531 0.191406 C 3.910156 0.191406 3.984375 0.121094 3.984375 -0.046875 C 4.007812 -0.0976562 3.984375 -0.144531 3.984375 -0.214844 C 4.007812 -0.433594 4.007812 -0.648438 4.03125 -0.863281 C 4.054688 -1.585938 4.128906 -2.304688 4.152344 -3.023438 C 4.175781 -3.550781 4.175781 -4.078125 4.199219 -4.609375 C 4.222656 -5.015625 4.222656 -5.425781 4.246094 -5.808594 C 4.273438 -6.503906 4.296875 -7.222656 4.320312 -7.945312 Z M 4.320312 -7.945312 "/></g></g></g><g fill="#000000" fill-opacity="1"><g transform="translate(93.964549, 386.835938)"><g><path d="M 3.550781 -6.960938 L 3.503906 -6.960938 L 3.503906 -4.390625 C 3.503906 -3.046875 3.527344 -1.679688 3.550781 -0.335938 C 3.550781 0.046875 3.671875 0.144531 4.007812 0.144531 C 4.246094 0.121094 4.488281 0.121094 4.726562 0.121094 L 5.160156 0.121094 C 5.328125 0.121094 5.519531 0.0976562 5.6875 0.0976562 C 5.902344 0.0703125 6.121094 0.046875 6.3125 0.0234375 C 6.433594 0 6.503906 -0.0703125 6.527344 -0.191406 C 6.527344 -0.289062 6.550781 -0.382812 6.550781 -0.480469 C 6.574219 -2.566406 6.574219 -4.65625 6.601562 -6.71875 C 6.601562 -7.679688 6.601562 -8.617188 6.625 -9.550781 C 6.648438 -10.34375 6.695312 -11.136719 6.695312 -11.929688 C 6.71875 -12.457031 6.71875 -12.984375 6.71875 -13.511719 C 6.71875 -13.726562 6.71875 -13.703125 6.910156 -13.726562 C 7.320312 -13.726562 7.703125 -13.753906 8.113281 -13.800781 C 8.566406 -13.824219 9 -13.894531 9.457031 -13.96875 C 9.71875 -14.015625 9.792969 -14.089844 9.792969 -14.375 L 9.792969 -16.632812 C 9.792969 -16.871094 9.71875 -16.945312 9.480469 -16.945312 L 6.960938 -17.015625 C 6.070312 -17.039062 5.183594 -17.039062 4.296875 -17.039062 L 1.777344 -17.113281 C 1.488281 -17.113281 1.199219 -17.136719 0.910156 -17.160156 C 0.792969 -17.160156 0.695312 -17.136719 0.601562 -17.015625 C 0.550781 -16.894531 0.503906 -16.777344 0.503906 -16.65625 L 0.503906 -14.472656 C 0.503906 -14.328125 0.480469 -14.183594 0.480469 -14.039062 C 0.480469 -13.871094 0.550781 -13.800781 0.695312 -13.800781 C 1.078125 -13.800781 1.464844 -13.777344 1.847656 -13.777344 C 2.328125 -13.800781 2.785156 -13.800781 3.265625 -13.824219 C 3.433594 -13.824219 3.433594 -13.824219 3.433594 -13.632812 L 3.433594 -12.433594 C 3.457031 -11.519531 3.527344 -10.609375 3.527344 -9.71875 C 3.550781 -8.808594 3.550781 -7.871094 3.550781 -6.960938 Z M 3.550781 -6.960938 "/></g></g></g><g fill="#000000" fill-opacity="1"><g transform="translate(36.925779, 416.683593)"><g><path d="M 9.046875 -11.929688 C 9.023438 -12.816406 9 -13.726562 8.976562 -14.617188 L 8.902344 -16.632812 C 8.878906 -16.945312 8.855469 -16.96875 8.542969 -16.992188 C 8.425781 -17.015625 8.304688 -17.015625 8.160156 -17.039062 C 7.703125 -17.039062 7.246094 -17.0625 6.816406 -17.0625 C 6.601562 -17.0625 6.40625 -17.039062 6.214844 -17.039062 C 6.023438 -17.0625 5.929688 -16.992188 5.832031 -16.824219 C 5.761719 -16.703125 5.710938 -16.585938 5.640625 -16.441406 C 5.398438 -15.910156 5.113281 -15.433594 4.945312 -14.855469 C 4.753906 -14.230469 4.464844 -13.632812 4.152344 -13.03125 C 3.601562 -11.929688 3.070312 -10.800781 2.542969 -9.671875 C 2.230469 -9.070312 1.96875 -8.472656 1.703125 -7.847656 C 1.609375 -7.65625 1.535156 -7.488281 1.414062 -7.320312 C 1.273438 -7.128906 1.152344 -6.910156 1.175781 -6.648438 C 1.199219 -6.480469 1.152344 -6.289062 1.128906 -6.097656 C 1.03125 -5.496094 0.960938 -4.871094 0.984375 -4.246094 C 0.984375 -4.007812 1.054688 -3.910156 1.273438 -3.863281 C 1.414062 -3.816406 1.585938 -3.839844 1.726562 -3.839844 C 2.089844 -3.863281 2.425781 -3.910156 2.761719 -3.886719 C 3.550781 -3.886719 4.34375 -3.863281 5.136719 -3.839844 C 5.328125 -3.816406 5.519531 -3.816406 5.6875 -3.816406 C 5.785156 -3.816406 5.832031 -3.769531 5.832031 -3.671875 C 5.832031 -3.214844 5.808594 -2.761719 5.808594 -2.328125 C 5.808594 -1.609375 5.785156 -0.886719 5.785156 -0.167969 C 5.785156 0.3125 5.929688 0.40625 6.382812 0.359375 C 6.71875 0.335938 7.078125 0.3125 7.441406 0.289062 C 7.800781 0.289062 8.160156 0.289062 8.542969 0.3125 C 8.710938 0.3125 8.832031 0.238281 8.929688 0.121094 C 9.023438 0 9.046875 -0.144531 9.046875 -0.265625 C 9.046875 -0.960938 9.070312 -1.65625 9.070312 -2.351562 L 9.070312 -3.503906 C 9.070312 -3.601562 9.070312 -3.671875 9.191406 -3.671875 C 9.527344 -3.671875 9.839844 -3.695312 10.175781 -3.695312 C 10.511719 -3.71875 10.847656 -3.742188 11.183594 -3.742188 C 11.230469 -3.742188 11.28125 -3.769531 11.328125 -3.769531 C 11.449219 -3.792969 11.519531 -3.863281 11.542969 -3.984375 C 11.566406 -4.054688 11.59375 -4.128906 11.59375 -4.199219 C 11.59375 -5.039062 11.566406 -5.855469 11.566406 -6.671875 C 11.566406 -6.742188 11.542969 -6.792969 11.542969 -6.863281 C 11.496094 -7.03125 11.398438 -7.105469 11.230469 -7.128906 C 10.894531 -7.128906 10.585938 -7.128906 10.246094 -7.152344 C 9.910156 -7.175781 9.601562 -7.175781 9.265625 -7.199219 C 9.121094 -7.199219 9.097656 -7.199219 9.097656 -7.34375 C 9.070312 -7.585938 9.070312 -7.824219 9.070312 -8.0625 C 9.046875 -9.359375 9.046875 -10.632812 9.046875 -11.929688 Z M 4.824219 -7.464844 C 5.183594 -8.113281 5.449219 -8.808594 5.855469 -9.457031 C 5.878906 -9.40625 5.878906 -9.382812 5.878906 -9.359375 C 5.902344 -8.761719 5.902344 -8.160156 5.902344 -7.558594 C 5.902344 -7.488281 5.878906 -7.414062 5.785156 -7.414062 L 4.871094 -7.414062 C 4.847656 -7.414062 4.847656 -7.441406 4.824219 -7.464844 Z M 4.824219 -7.464844 "/></g></g></g><g fill="#000000" fill-opacity="1"><g transform="translate(49.477807, 416.683593)"><g><path d="M 2.976562 -8.855469 C 2.902344 -8.808594 2.832031 -8.761719 2.785156 -8.710938 C 2.351562 -8.449219 2.039062 -8.0625 1.800781 -7.632812 C 1.585938 -7.273438 1.390625 -6.886719 1.222656 -6.527344 C 1.152344 -6.40625 1.105469 -6.265625 1.078125 -6.144531 C 1.03125 -5.878906 1.007812 -5.640625 0.984375 -5.375 C 0.960938 -5.0625 0.960938 -4.753906 0.984375 -4.441406 C 1.03125 -3.816406 1.222656 -3.238281 1.414062 -2.664062 C 1.632812 -2.089844 1.894531 -1.535156 2.230469 -1.054688 C 2.375 -0.839844 2.542969 -0.671875 2.734375 -0.503906 C 2.855469 -0.433594 2.953125 -0.359375 3.046875 -0.289062 C 3.433594 0.046875 3.910156 0.238281 4.441406 0.335938 C 4.847656 0.382812 5.28125 0.480469 5.710938 0.382812 C 6.167969 0.3125 6.648438 0.238281 7.105469 0.121094 C 7.320312 0.0703125 7.558594 0 7.777344 -0.121094 C 8.207031 -0.359375 8.542969 -0.695312 8.808594 -1.128906 C 9.097656 -1.585938 9.265625 -2.089844 9.382812 -2.617188 C 9.648438 -3.574219 9.671875 -4.535156 9.480469 -5.519531 C 9.433594 -5.785156 9.359375 -6.046875 9.289062 -6.335938 C 9.191406 -6.9375 9.023438 -7.488281 8.617188 -7.945312 C 8.566406 -7.992188 8.542969 -8.0625 8.496094 -8.136719 L 7.992188 -8.785156 C 7.871094 -8.902344 7.871094 -8.902344 7.992188 -9 C 8.207031 -9.167969 8.425781 -9.335938 8.566406 -9.574219 C 8.808594 -10.007812 9.070312 -10.441406 9.265625 -10.871094 C 9.648438 -11.761719 9.671875 -12.695312 9.574219 -13.632812 C 9.527344 -14.136719 9.359375 -14.617188 9.214844 -15.097656 C 9 -15.816406 8.519531 -16.320312 7.894531 -16.703125 C 7.679688 -16.824219 7.441406 -16.945312 7.222656 -17.0625 C 6.769531 -17.28125 6.3125 -17.375 5.832031 -17.304688 C 5.351562 -17.28125 4.871094 -17.207031 4.390625 -17.136719 C 4.105469 -17.089844 3.839844 -16.945312 3.574219 -16.800781 C 3.167969 -16.535156 2.855469 -16.175781 2.542969 -15.816406 C 2.304688 -15.527344 2.0625 -15.191406 1.945312 -14.808594 C 1.847656 -14.566406 1.753906 -14.351562 1.65625 -14.113281 L 1.511719 -13.679688 C 1.34375 -13.152344 1.320312 -12.574219 1.367188 -12.023438 C 1.414062 -11.375 1.535156 -10.753906 1.921875 -10.199219 C 1.96875 -10.105469 2.039062 -10.007812 2.089844 -9.910156 C 2.183594 -9.695312 2.328125 -9.503906 2.496094 -9.335938 C 2.664062 -9.191406 2.808594 -9.023438 2.976562 -8.855469 Z M 4.105469 -4.558594 C 4.105469 -4.921875 4.152344 -5.257812 4.246094 -5.59375 C 4.390625 -6.289062 4.824219 -6.792969 5.328125 -7.273438 C 5.425781 -7.34375 5.496094 -7.34375 5.617188 -7.296875 C 6.046875 -7.078125 6.289062 -6.742188 6.433594 -6.289062 C 6.574219 -5.785156 6.648438 -5.28125 6.574219 -4.777344 C 6.527344 -4.34375 6.382812 -3.9375 6.121094 -3.574219 C 5.902344 -3.3125 5.617188 -3.191406 5.28125 -3.191406 C 5.0625 -3.167969 4.847656 -3.191406 4.65625 -3.3125 C 4.273438 -3.503906 4.128906 -3.816406 4.105469 -4.199219 C 4.078125 -4.320312 4.105469 -4.441406 4.105469 -4.558594 Z M 6.550781 -11.929688 C 6.550781 -11.542969 6.527344 -11.183594 6.382812 -10.847656 C 6.289062 -10.585938 6.144531 -10.390625 5.902344 -10.273438 C 5.832031 -10.246094 5.785156 -10.199219 5.710938 -10.199219 C 5.566406 -10.152344 5.449219 -10.054688 5.28125 -10.078125 C 5.0625 -10.152344 4.847656 -10.246094 4.679688 -10.441406 C 4.441406 -10.753906 4.273438 -11.113281 4.296875 -11.542969 C 4.296875 -11.929688 4.320312 -12.335938 4.414062 -12.71875 C 4.511719 -13.152344 4.703125 -13.488281 5.089844 -13.726562 C 5.496094 -13.992188 6.097656 -13.800781 6.265625 -13.367188 C 6.457031 -12.910156 6.574219 -12.433594 6.550781 -11.929688 Z M 6.550781 -11.929688 "/></g></g></g><g fill="#000000" fill-opacity="1"><g transform="translate(60.061829, 416.683593)"><g><path d="M 4.199219 -1.296875 C 4.199219 -1.464844 4.199219 -1.609375 4.175781 -1.777344 C 4.105469 -2.519531 3.480469 -3 2.929688 -3.023438 C 2.761719 -3.046875 2.59375 -3.046875 2.425781 -3.070312 C 2.0625 -3.070312 1.777344 -2.929688 1.585938 -2.640625 C 1.414062 -2.398438 1.273438 -2.160156 1.128906 -1.894531 C 0.984375 -1.632812 0.9375 -1.34375 0.984375 -1.03125 C 1.007812 -0.742188 1.054688 -0.457031 1.296875 -0.238281 C 1.800781 0.238281 2.398438 0.433594 3.097656 0.289062 C 3.503906 0.214844 3.816406 0 4.007812 -0.382812 C 4.152344 -0.671875 4.199219 -0.984375 4.199219 -1.296875 Z M 4.199219 -1.296875 "/></g></g></g><g fill="#000000" fill-opacity="1"><g transform="translate(65.221844, 416.683593)"><g><path d="M 6.214844 -6.433594 C 6.167969 -6.023438 6.121094 -5.664062 6.046875 -5.328125 C 5.953125 -4.894531 5.808594 -4.464844 5.6875 -4.03125 C 5.496094 -3.40625 4.65625 -3.070312 4.078125 -3.40625 C 3.769531 -3.574219 3.480469 -3.769531 3.167969 -3.960938 C 3.121094 -4.007812 3.070312 -4.03125 3.023438 -4.054688 C 2.808594 -4.175781 2.566406 -4.152344 2.375 -3.984375 C 2.136719 -3.792969 1.847656 -3.574219 1.65625 -3.3125 C 1.296875 -2.855469 1.007812 -2.375 1.078125 -1.753906 C 1.105469 -1.511719 1.175781 -1.320312 1.367188 -1.152344 L 1.585938 -1.007812 C 2.089844 -0.71875 2.617188 -0.433594 3.121094 -0.144531 C 3.625 0.121094 4.152344 0.238281 4.703125 0.238281 C 5.113281 0.238281 5.519531 0.191406 5.929688 0.121094 C 6.574219 0.0234375 7.128906 -0.238281 7.558594 -0.769531 L 7.726562 -0.9375 C 7.945312 -1.175781 8.113281 -1.441406 8.230469 -1.726562 C 8.542969 -2.496094 8.832031 -3.238281 9 -4.03125 C 9.144531 -4.679688 9.265625 -5.304688 9.3125 -5.953125 C 9.433594 -7.273438 9.550781 -8.566406 9.625 -9.863281 C 9.671875 -10.945312 9.671875 -12 9.550781 -13.078125 C 9.550781 -13.175781 9.527344 -13.296875 9.503906 -13.414062 C 9.238281 -14.351562 8.832031 -15.191406 8.136719 -15.910156 C 7.753906 -16.296875 7.296875 -16.609375 6.71875 -16.679688 C 6.671875 -16.679688 6.601562 -16.703125 6.550781 -16.703125 C 6.144531 -16.824219 5.761719 -16.847656 5.351562 -16.871094 C 4.847656 -16.894531 4.390625 -16.824219 3.9375 -16.679688 C 3.382812 -16.535156 2.976562 -16.175781 2.617188 -15.742188 C 2.113281 -15.121094 1.824219 -14.351562 1.585938 -13.585938 C 1.441406 -13.054688 1.367188 -12.503906 1.175781 -12 C 1.105469 -11.808594 1.054688 -11.617188 1.03125 -11.425781 C 0.9375 -10.753906 0.984375 -10.078125 1.078125 -9.433594 C 1.199219 -8.617188 1.488281 -7.871094 1.894531 -7.175781 C 2.039062 -6.910156 2.207031 -6.695312 2.449219 -6.503906 C 2.566406 -6.433594 2.664062 -6.335938 2.761719 -6.265625 C 2.832031 -6.191406 2.902344 -6.121094 2.976562 -6.070312 C 3.191406 -5.953125 3.40625 -5.785156 3.695312 -5.785156 C 4.007812 -5.785156 4.34375 -5.785156 4.679688 -5.832031 C 5.136719 -5.878906 5.566406 -6 5.929688 -6.265625 C 6 -6.335938 6.097656 -6.359375 6.214844 -6.433594 Z M 3.984375 -11.136719 L 3.984375 -11.542969 C 3.960938 -11.878906 4.03125 -12.214844 4.105469 -12.527344 C 4.175781 -12.886719 4.390625 -13.175781 4.585938 -13.488281 C 4.753906 -13.726562 4.96875 -13.753906 5.28125 -13.679688 C 5.449219 -13.65625 5.59375 -13.558594 5.6875 -13.414062 C 5.6875 -13.390625 5.710938 -13.367188 5.710938 -13.367188 C 6.070312 -12.984375 6.144531 -12.527344 6.144531 -12.046875 C 6.167969 -11.304688 6.023438 -10.632812 5.6875 -9.960938 C 5.566406 -9.695312 5.351562 -9.527344 5.039062 -9.550781 L 4.632812 -9.550781 C 4.414062 -9.550781 4.246094 -9.625 4.152344 -9.839844 C 4.03125 -10.03125 3.984375 -10.246094 3.984375 -10.488281 Z M 3.984375 -11.136719 "/></g></g></g><g fill="#000000" fill-opacity="1"><g transform="translate(75.853862, 416.683593)"><g><path d="M 10.152344 -13.558594 C 9.984375 -13.558594 9.886719 -13.511719 9.816406 -13.414062 C 9.769531 -13.34375 9.71875 -13.296875 9.671875 -13.246094 C 9.40625 -12.9375 9.144531 -12.648438 8.878906 -12.335938 C 8.617188 -12.046875 8.375 -11.761719 8.089844 -11.472656 C 7.800781 -11.183594 7.488281 -10.894531 7.175781 -10.609375 C 6.167969 -9.648438 5.160156 -8.710938 4.175781 -7.777344 C 4.03125 -7.632812 3.886719 -7.511719 3.769531 -7.367188 C 3.097656 -6.527344 2.425781 -5.710938 1.726562 -4.871094 C 1.585938 -4.703125 1.609375 -4.488281 1.585938 -4.296875 C 1.585938 -4.273438 1.632812 -4.222656 1.65625 -4.199219 C 1.945312 -3.816406 2.257812 -3.457031 2.617188 -3.144531 C 2.808594 -3 3.023438 -2.929688 3.238281 -2.878906 C 3.3125 -2.878906 3.382812 -2.878906 3.433594 -2.902344 C 3.648438 -3 3.863281 -3.097656 4.03125 -3.289062 C 4.414062 -3.695312 4.871094 -4.054688 5.28125 -4.441406 C 5.710938 -4.800781 6.097656 -5.230469 6.503906 -5.617188 C 7.441406 -6.527344 8.351562 -7.414062 9.289062 -8.304688 C 9.433594 -8.449219 9.574219 -8.566406 9.71875 -8.6875 C 10.03125 -9 10.367188 -9.3125 10.679688 -9.648438 C 11.136719 -10.152344 11.566406 -10.679688 12 -11.207031 C 12.046875 -11.257812 12.097656 -11.328125 12.144531 -11.398438 C 12.214844 -11.542969 12.289062 -11.734375 12.191406 -11.902344 C 12.023438 -12.167969 11.855469 -12.433594 11.617188 -12.625 C 11.304688 -12.839844 11.089844 -13.152344 10.726562 -13.320312 C 10.726562 -13.320312 10.703125 -13.320312 10.703125 -13.34375 C 10.535156 -13.511719 10.34375 -13.535156 10.152344 -13.558594 Z M 5.953125 -11.855469 L 5.953125 -12.097656 C 5.929688 -12.238281 5.902344 -12.382812 5.855469 -12.527344 C 5.664062 -12.9375 5.351562 -13.273438 4.96875 -13.558594 C 4.800781 -13.65625 4.632812 -13.753906 4.464844 -13.871094 C 4.078125 -14.136719 3.648438 -14.160156 3.191406 -14.0625 C 2.976562 -14.015625 2.785156 -13.96875 2.566406 -13.894531 C 2.015625 -13.703125 1.609375 -13.390625 1.34375 -12.839844 C 1.054688 -12.214844 0.984375 -11.542969 0.960938 -10.847656 C 0.960938 -10.777344 0.984375 -10.679688 1.054688 -10.609375 C 1.175781 -10.414062 1.34375 -10.246094 1.488281 -10.054688 C 1.585938 -9.960938 1.65625 -9.863281 1.753906 -9.792969 C 2.207031 -9.480469 2.734375 -9.3125 3.289062 -9.289062 C 3.71875 -9.289062 4.152344 -9.335938 4.558594 -9.457031 C 4.753906 -9.527344 4.945312 -9.625 5.113281 -9.769531 C 5.425781 -10.007812 5.617188 -10.34375 5.734375 -10.703125 C 5.902344 -11.0625 5.953125 -11.449219 5.953125 -11.855469 Z M 3.457031 -11.328125 C 3.335938 -11.351562 3.238281 -11.351562 3.144531 -11.398438 C 3.023438 -11.449219 3.023438 -11.496094 3.046875 -11.617188 C 3.097656 -11.855469 3.335938 -12.097656 3.574219 -12.144531 C 3.648438 -12.167969 3.71875 -12.144531 3.769531 -12.070312 C 3.863281 -11.929688 3.910156 -11.785156 3.910156 -11.617188 C 3.886719 -11.496094 3.839844 -11.425781 3.742188 -11.375 C 3.648438 -11.351562 3.550781 -11.328125 3.457031 -11.328125 Z M 10.152344 -7.34375 C 9.527344 -7.367188 9.023438 -7.152344 8.59375 -6.742188 C 8.304688 -6.433594 8.089844 -6.097656 7.921875 -5.710938 C 7.753906 -5.28125 7.703125 -4.824219 7.726562 -4.367188 C 7.753906 -4.105469 7.800781 -3.839844 7.96875 -3.625 C 8.183594 -3.359375 8.375 -3.097656 8.664062 -2.902344 C 9.121094 -2.59375 9.648438 -2.496094 10.199219 -2.472656 C 10.824219 -2.449219 11.328125 -2.6875 11.734375 -3.121094 C 12.265625 -3.71875 12.574219 -4.441406 12.550781 -5.28125 C 12.527344 -5.566406 12.457031 -5.878906 12.265625 -6.097656 C 11.953125 -6.457031 11.640625 -6.816406 11.207031 -7.03125 C 10.847656 -7.222656 10.511719 -7.367188 10.152344 -7.34375 Z M 10.632812 -4.777344 C 10.632812 -4.464844 10.488281 -4.34375 10.199219 -4.464844 C 10.007812 -4.535156 9.816406 -4.585938 9.742188 -4.800781 C 9.71875 -4.921875 9.695312 -5.015625 9.792969 -5.089844 C 9.839844 -5.160156 9.886719 -5.207031 9.960938 -5.257812 C 10.128906 -5.375 10.222656 -5.375 10.390625 -5.230469 C 10.511719 -5.113281 10.632812 -4.96875 10.632812 -4.777344 Z M 10.632812 -4.777344 "/></g></g></g></svg>